<?xml version="1.0" standalone="no"?><!DOCTYPE svg PUBLIC "-//W3C//DTD SVG 20010904//EN" "http://www.w3.org/TR/2001/REC-SVG-20010904/DTD/svg10.dtd"><svg version="1.0" xmlns="http://www.w3.org/2000/svg" width="1898.000000pt" height="1898.000000pt" viewBox="0 0 1898.000000 1898.000000" preserveAspectRatio="xMidYMid meet"><metadata>Created by potrace 1.14, written by Peter Selinger 2001-2017</metadata><g transform="translate(0.000000,1898.000000) scale(0.100000,-0.100000)" fill="#000000" stroke="none"><path d="M8160 18364 c-30 -2 -134 -8 -230 -14 -1339 -83 -2778 -506 -3970 -1168 -548 -304 -1011 -651 -1435 -1076 -294 -294 -483 -523 -692 -836 -491 -737 -801 -1537 -922 -2385 -68 -469 -73 -1018 -15 -1485 92 -738 363 -1462 784 -2090 437 -653 1158 -1355 2117 -2059 l161 -118 -755 -944 c-416 -519 -831 -1041 -924 -1159 -93 -118 -234 -296 -314 -395 -630 -779 -1025 -1492 -1169 -2105 -48 -205 -60 -313 -60 -525 0 -218 16 -336 70 -500 66 -204 194 -409 348 -557 62 -61 191 -142 286 -181 155 -64 204 -72 415 -72 171 0 199 2 275 24 197 56 319 127 455 265 79 78 98 105 143 196 54 111 82 218 82 312 -1 163 -91 367 -325 738 -172 271 -210 369 -210 535 0 137 16 170 109 234 101 68 165 84 336 84 151 0 253 -13 460 -59 977 -218 2540 -969 4628 -2223 166 -100 309 -184 316 -187 7 -3 82 43 167 102 85 59 240 167 344 239 105 72 273 190 375 260 263 183 853 593 1210 840 168 117 460 320 650 451 190 132 521 362 735 511 215 148 514 356 665 461 l275 192 7 -38 c4 -20 19 -131 33 -247 67 -535 190 -973 368 -1315 253 -486 689 -891 1295 -1203 205 -106 510 -239 533 -234 19 5 963 716 1254 944 110 86 382 299 605 473 589 459 1551 1211 1609 1256 7 6 -16 33 -282 342 -250 290 -260 300 -300 305 -23 3 -148 11 -278 18 l-237 13 -113 -95 c-303 -252 -545 -411 -688 -453 -52 -15 -56 -15 -98 5 -57 28 -142 133 -188 232 -102 221 -180 683 -206 1220 -6 122 -60 2222 -120 4667 -98 3940 -110 4502 -106 4945 3 275 10 547 16 605 56 533 135 790 329 1081 280 417 734 733 1601 1114 112 50 205 95 207 100 5 12 -332 754 -349 771 -7 6 -121 46 -254 88 l-242 77 -148 -64 c-591 -257 -1124 -541 -1528 -816 -308 -209 -519 -377 -1012 -805 -37 -32 -48 -38 -61 -29 -159 107 -649 397 -872 515 -356 190 -805 398 -1140 531 -172 68 -489 184 -575 210 -27 9 -122 38 -210 65 -651 203 -1371 340 -2080 397 -186 15 -1006 29 -1155 19z m365 -2538 c654 -66 1202 -193 1830 -423 83 -30 153 -58 158 -62 5 -5 -441 -580 -491 -633 -4 -4 -75 13 -159 37 -406 119 -747 190 -1158 240 -176 22 -651 31 -825 16 -673 -59 -1299 -275 -1845 -636 -194 -129 -336 -245 -501 -409 -202 -203 -299 -328 -460 -598 -291 -485 -418 -911 -344 -1150 54 -176 229 -334 420 -379 67 -16 207 -15 275 0 79 18 204 86 271 146 34 30 94 97 134 149 314 415 623 629 1035 716 202 43 527 38 770 -11 208 -42 566 -153 672 -208 l31 -16 -1820 -2275 c-1000 -1251 -1828 -2283 -1838 -2294 -17 -18 -19 -18 -66 15 -143 97 -435 327 -614 484 -822 718 -1320 1467 -1521 2289 -71 291 -94 496 -94 836 0 236 4 297 24 430 116 771 522 1540 1122 2125 366 357 810 662 1339 922 871 427 1729 648 2745 707 145 9 769 -4 910 -18z m3268 -1204 c98 -69 219 -175 415 -367 l74 -71 63 -2520 c35 -1385 66 -2606 70 -2711 l6 -193 -2785 -2 c-1855 -2 -2782 0 -2777 7 5 6 1080 1350 2390 2988 l2382 2978 27 -17 c15 -9 76 -51 135 -92z m691 -8154 c6 -40 39 -1418 34 -1422 -1 -2 -95 -65 -208 -141 -112 -77 -398 -271 -635 -431 -236 -161 -477 -325 -535 -364 -58 -39 -352 -239 -654 -445 l-548 -373 -37 15 c-33 14 -1278 507 -1536 608 -60 24 -220 87 -355 140 -526 208 -1144 451 -1545 610 -480 190 -699 276 -1115 440 -162 64 -472 186 -688 271 l-392 156 42 53 c24 29 198 247 388 484 l345 431 3717 0 3717 0 5 -32z"/></g></svg>