<?xml version="1.0" standalone="no"?><!DOCTYPE svg PUBLIC "-//W3C//DTD SVG 20010904//EN" "http://www.w3.org/TR/2001/REC-SVG-20010904/DTD/svg10.dtd"> <svg version="1.0" xmlns="http://www.w3.org/2000/svg" width="2079.000000pt" height="2079.000000pt" viewBox="0 0 2079.000000 2079.000000" preserveAspectRatio="xMidYMid meet"><metadata>Created by potrace 1.14, written by Peter Selinger 2001-2017</metadata><g transform="translate(0.000000,2079.000000) scale(0.100000,-0.100000)" fill="#000000" stroke="none"><path d="M8980 20114 c-1062 -56 -1937 -217 -2875 -529 -1635 -543 -2891 -1347 -3756 -2405 -388 -474 -757 -1111 -986 -1700 -164 -423 -278 -849 -347 -1300 -91 -596 -93 -1290 -6 -1840 157 -985 554 -1852 1206 -2630 356 -425 851 -902 1389 -1336 127 -102 557 -429 710 -540 l29 -21 -857 -1072 c-472 -590 -906 -1134 -964 -1209 -59 -75 -182 -230 -275 -344 -841 -1033 -1298 -1889 -1414 -2653 -25 -165 -26 -519 -1 -655 48 -264 136 -468 288 -669 184 -244 403 -382 696 -437 127 -24 395 -15 512 16 439 117 745 462 744 840 0 57 -7 120 -17 158 -38 143 -138 339 -326 637 -185 294 -241 428 -243 590 -3 162 36 231 170 303 96 51 170 66 318 66 794 -2 2346 -648 4520 -1882 310 -176 519 -298 997 -584 l417 -249 543 377 c299 208 734 510 968 672 468 325 1376 956 1650 1147 173 120 735 511 1355 941 176 122 321 221 322 220 1 -1 9 -65 18 -142 97 -888 301 -1509 644 -1965 292 -387 683 -702 1207 -971 222 -114 561 -261 577 -251 27 15 1074 806 1220 920 272 213 460 360 867 678 217 169 445 347 505 395 126 98 274 214 813 635 210 164 381 302 380 307 -3 7 -559 657 -584 683 -7 6 -34 12 -61 13 -26 1 -160 9 -297 17 -210 13 -252 13 -265 2 -386 -330 -691 -537 -867 -590 -71 -21 -113 -5 -183 69 -69 74 -114 145 -152 239 -83 207 -158 614 -189 1020 -5 77 -12 167 -15 200 -4 59 -10 246 -20 695 -3 124 -7 308 -10 410 -6 223 -12 481 -25 1025 -5 226 -12 493 -15 595 -3 102 -7 277 -10 390 -10 433 -15 632 -20 815 -3 105 -7 282 -10 395 -7 297 -14 597 -20 820 -5 181 -7 275 -20 815 -9 340 -15 603 -20 785 -3 96 -7 283 -10 415 -3 132 -7 312 -10 400 -3 88 -7 270 -10 405 -3 135 -8 313 -10 395 -3 83 -7 269 -10 415 -3 146 -8 319 -10 385 -20 554 -27 1688 -12 1936 14 237 46 496 83 673 117 554 443 995 1012 1370 238 157 629 360 1040 541 122 54 222 101 222 105 0 3 -87 194 -192 425 -166 359 -197 420 -218 426 -14 4 -131 42 -261 83 -130 42 -244 76 -253 76 -33 0 -448 -186 -771 -345 -790 -390 -1398 -802 -2049 -1386 -192 -173 -162 -161 -259 -99 -650 418 -1427 821 -2102 1090 -1075 429 -2067 661 -3240 756 -177 14 -988 27 -1155 18z m44 -2754 c789 -37 1543 -195 2341 -492 87 -32 161 -61 163 -63 3 -3 -428 -551 -554 -704 -2 -2 -65 15 -141 37 -1501 449 -2699 396 -3808 -168 -386 -197 -689 -413 -960 -684 -208 -209 -354 -400 -512 -671 -250 -428 -365 -732 -388 -1025 -22 -292 169 -547 470 -625 76 -19 231 -19 314 0 132 31 289 136 383 255 24 30 80 100 123 155 165 207 378 397 571 509 222 129 433 191 741 217 333 29 796 -59 1253 -238 63 -25 116 -47 118 -48 6 -6 -4020 -5035 -4030 -5035 -17 0 -417 305 -590 449 -679 568 -1154 1134 -1474 1756 -244 475 -373 913 -424 1445 -11 108 -14 544 -5 615 2 22 9 85 16 140 81 741 505 1616 1085 2236 558 596 1309 1077 2257 1445 938 365 2028 541 3051 494z m3864 -1318 c145 -100 253 -196 438 -383 l132 -134 36 -1480 c20 -814 39 -1550 41 -1635 3 -85 19 -699 35 -1365 16 -665 31 -1265 34 -1332 l6 -123 -3055 -2 c-1680 -2 -3054 0 -3053 4 2 4 1180 1478 2618 3277 1704 2130 2620 3268 2629 3265 7 -2 70 -44 139 -92z m792 -8974 c0 -35 9 -394 20 -798 l20 -735 -30 -23 c-16 -13 -109 -78 -207 -144 -173 -118 -1088 -739 -1328 -903 -250 -170 -1123 -764 -1195 -812 l-75 -50 -220 87 c-121 48 -336 133 -477 189 -142 55 -374 147 -515 202 -142 56 -647 256 -1123 444 -476 188 -957 378 -1070 423 -113 44 -326 129 -475 187 -148 59 -344 136 -435 172 -355 140 -505 199 -1045 413 -308 122 -624 247 -702 277 -79 31 -143 59 -143 62 0 3 192 246 426 539 l426 532 4074 0 4074 0 0 -62z"/></g></svg>