<svg version="1" xmlns="http://www.w3.org/2000/svg" width="346.667" height="346.667" viewBox="0 0 260.000000 260.000000"><path d="M98.5 7.9C82.1 10.8 67.4 16.2 52 25 34 35.4 21.2 51.4 14.4 72.3c-3.1 9.6-3.5 12.2-3.6 22-.1 10.2.2 12 3.1 20.2 5.2 14.9 17 30.3 32.9 42.8 3.6 2.9 6.2 5.6 6.2 6.8 0 1-2.8 5.1-6.3 9.1-12.3 14.2-27.3 33.7-31.5 41.1-9.2 16.3-7.8 30.6 3.8 36.5 5.6 2.8 8.4 2.8 14-.1 3.6-1.7 4.8-3.1 5.9-6.2 1.4-4 1.3-4.4-2.3-12.4-2.1-4.5-3.5-8.8-3.3-9.6 2.9-7.4 35.6 4.2 67.1 23.9 2.8 1.7 7 4 9.4 5.1 4.3 1.8 4.4 1.8 7.9-.1 2-1 6.6-4 10.2-6.7 20.2-14.6 43-29.7 45.3-30 1.9-.2 2.4.6 3.9 6.5 4 15.2 10 23.1 21.8 28.6 7.4 3.4 7.5 3.4 11 1.7 2-.9 6.1-3.7 9.1-6.1 3-2.4 10.2-8.1 16-12.6 5.8-4.6 12.5-9.7 15-11.4 6.2-4.1 6.6-7.7 1.4-13.3-4.8-5.4-7.4-5.4-14.8.4-6.6 5.1-6.1 4.9-8.6 3.5-3.1-1.7-3.9-7.2-5-35.5-.6-14.8-1.5-36-1.9-47-.5-11-.8-34.6-.7-52.5l.1-32.5 2.7-4.5c3.9-6.5 7.2-9.4 16.8-14.3 5.8-3 8.6-5.1 8.8-6.4.4-2.7-3.2-11.5-5.1-12.7-3.9-2.5-20.3 5.4-34.8 16.5-4.2 3.3-8.3 5.9-9.3 5.9-.9 0-7.4-2.9-14.4-6.4-17.5-8.8-27.8-12.2-43.8-14.6-16.4-2.4-29.5-2.4-42.9-.1zm39 38.6c8.4 3.1 9 3.7 7.6 6.4-1.6 3-4.7 3.4-12.1 1.7-8.8-2.1-25.7-2.1-33.4.1C87.6 58 75 68.3 68.1 80.4c-5 8.7-3.8 15.2 3.4 17.6 4.3 1.4 6.1.6 14.1-7.1 6.9-6.5 9.6-7.4 20.6-6.7 11.4.9 11.4 2.5.1 15.4-3.8 4.4-9.3 11-12.3 14.9-2.9 3.8-10.3 13-16.4 20.2C69 145 66 148 64.1 148c-1.7 0-5-2.7-11.5-9.3-16.8-17-21.8-33.2-16.2-51.7 4.3-14.2 16.5-27 33.2-34.7 16.1-7.5 25.9-9.3 46.4-8.8 12.7.3 15.4.7 21.5 3zm31.7 16c1.4 1.4 2.8 3.8 3.1 5.4.4 1.6.9 18.2 1.3 36.9l.7 34.1-3.9.3c-2.1.2-19.3.2-38.1 0-31.1-.2-38.2-.8-32.5-2.6 1-.3 2.6-2 3.6-3.7 1-1.7 4.3-5.8 7.3-9.2 3.1-3.4 7.9-9.4 10.9-13.2 5.9-7.8 13.1-16.7 24.6-30.3 4.2-5 9.5-11.6 11.8-14.7 4.6-6.3 7.2-7 11.2-3zm4.2 111.1c2 1.9 2.2 13.7.3 17.4-.7 1.3-2.8 3.5-4.7 4.7-1.9 1.2-8.8 5.9-15.3 10.4-8.7 5.9-12.7 8.1-15 8.1-1.8 0-8.8-2.3-15.7-5.2-6.9-2.8-20.4-8.1-30-11.7-23.1-8.7-30-11.8-30-13.8 0-2.2 7.7-10.3 10.3-10.8 1.2-.2 23.9-.5 50.4-.6 42.6-.1 48.3.1 49.7 1.5z"/></svg>